#!OML:ASF H:\Terrain\Patient Classification 1\Animal2\Wednesday\Animal2.ASF
:FULLY-SPECIFIED
:DEGREES
2022
root 12.9791 18.1934 7.56183 12.4063 -5.75784 0.676363
lowerback 7.34066 -2.2042 0.53089
upperback -4.18426 -2.91069 -0.0634256
thorax -8.5722 -1.45404 0.062207
lowerneck 9.49565 5.05904 15.8177
upperneck -37.887 3.9127 -21.4567
head -13.1628 2.23866 -12.5696
rclavicle 2.8948e-015 -1.14301e-014
rhumerus -11.9441 9.07934 -33.1562
rradius 137.49
rwrist -6.41937
rhand -18.3237 28.3368
rfingers 7.12502
rthumb 7.95792 -1.49341
lclavicle 2.8948e-015 -1.14301e-014
lhumerus -7.84821 -17.9212 25.1438
lradius 141.086
lwrist 45.8671
lhand -7.11894 9.14594
lfingers 7.12502
lthumb 18.7564 38.2617
rfemur -21.5419 -7.46262 21.6303
rtibia 19.9052
rfoot -14.7818 7.85225
rtoes 28.6088
lfemur -19.3868 -5.36449 -17.8927
ltibia 17.6919
lfoot -12.9744 0.747541
ltoes -31.2246
2023
root 12.9722 18.2062 7.5755 12.4307 -5.67936 0.844325
lowerback 7.71238 -2.22263 0.243766
upperback -4.63961 -2.96501 0.00619504
thorax -9.26844 -1.45768 0.333167
lowerneck 9.967 5.06836 15.6087
upperneck -37.9334 4.00167 -21.2864
head -13.2875 2.29524 -12.5014
rclavicle 2.04127e-014 -9.24349e-015
rhumerus -13.881 11.5168 -35.0104
rradius 138.095
rwrist -6.66122
rhand -18.0155 29.3479
rfingers 7.12502
rthumb 8.25535 -0.470809
lclavicle 2.04127e-014 -9.24349e-015
lhumerus -8.40639 -19.2986 25.5604
lradius 140.745
lwrist 45.472
lhand -7.32076 8.79979
lfingers 7.12502
lthumb 18.5623 37.9342
rfemur -21.5194 -7.16777 21.3391
rtibia 20.009
rfoot -15.0389 7.60927
rtoes 29.5898
lfemur -19.2342 -5.32397 -18.0858
ltibia 17.4232
lfoot -13.212 0.943008
ltoes -32.4806
2024
root 12.9687 18.2124 7.59938 12.3684 -5.67897 0.953154
lowerback 7.50126 -2.25058 -0.0607315
upperback -4.58617 -3.02277 0.180876
thorax -9.05903 -1.46244 0.686011
lowerneck 9.9075 5.15228 15.355
upperneck -38.112 4.01008 -21.3644
head -13.3563 2.33203 -12.515
rclavicle -2.12948e-014 9.93923e-015
rhumerus -15.5158 13.6878 -37.4045
rradius 138.589
rwrist -5.57346
rhand -17.0286 30.0666
rfingers 7.12502
rthumb 9.20772 0.287624
lclavicle -2.12948e-014 9.93923e-015
lhumerus -9.6432 -20.3864 26.9484
lradius 140.583
lwrist 44.492
lhand -6.3809 8.56798
lfingers 7.12502
lthumb 19.4662 37.6136
rfemur -21.426 -7.0586 21.1187
rtibia 20.1423
rfoot -15.0403 7.8978
rtoes 31.4267
lfemur -18.9354 -5.4647 -18.2154
ltibia 17.2154
lfoot -13.4104 1.52775
ltoes -33.8572
2025
root 12.9666 18.2089 7.62925 12.3199 -5.78111 1.08107
lowerback 7.33969 -2.24058 -0.358628
upperback -4.54581 -3.0288 0.345593
thorax -8.89458 -1.44329 1.01866
lowerneck 9.62091 5.27208 15.3209
upperneck -38.1667 3.98283 -21.8102
head -13.2944 2.36826 -12.7004
rclavicle -1.8077e-015 2.24378e-014
rhumerus -17.6677 16.2692 -40.3656
rradius 138.934
rwrist -3.46789
rhand -16.3897 30.8356
rfingers 7.12502
rthumb 9.82416 1.08479
lclavicle -1.8077e-015 2.24378e-014
lhumerus -11.731 -21.6414 29.248
lradius 140.368
lwrist 43.6995
lhand -4.36854 8.06199
lfingers 7.12502
lthumb 21.4 36.9002
rfemur -21.3509 -7.11702 20.9361
rtibia 20.2027
rfoot -14.9889 8.26302
rtoes 32.5903
lfemur -18.726 -5.65575 -18.3576
ltibia 17.206
lfoot -13.4769 2.05904
ltoes -33.8531
2026
root 12.9642 18.1908 7.6634 12.1917 -5.87507 1.19841
lowerback 7.56314 -2.22387 -0.527299
upperback -4.71244 -3.0188 0.457499
thorax -9.19343 -1.41999 1.24568
lowerneck 9.17756 5.41518 15.5062
upperneck -37.9376 3.98055 -22.4624
head -13.0387 2.42033 -12.9589
rclavicle -5.96354e-016 2.17172e-014
rhumerus -21.4738 19.4813 -43.9961
rradius 138.982
rwrist -1.25463
rhand -16.7701 32.12
rfingers 7.12502
rthumb 9.45721 2.35216
lclavicle -5.96354e-016 2.17172e-014
lhumerus -14.6671 -23.7027 32.5015
lradius 140.268
lwrist 42.8557
lhand -3.16656 7.71029
lfingers 7.12502
lthumb 22.5541 36.4129
rfemur -21.2191 -7.03784 20.7563
rtibia 20.1645
rfoot -14.8805 8.34525
rtoes 33.1216
lfemur -18.5651 -5.56675 -18.5448
ltibia 17.4123
lfoot -13.8048 2.16289
ltoes -33.8072
2027
root 12.9593 18.1708 7.70142 11.9599 -5.97186 1.09947
lowerback 7.72763 -2.20814 -0.428926
upperback -4.73123 -2.97621 0.581266
thorax -9.31037 -1.39909 1.3239
lowerneck 8.62519 5.57473 15.457
upperneck -37.8115 4.02073 -22.8059
head -12.8207 2.47841 -13.0339
rclavicle 1.18898e-014 1.69961e-014
rhumerus -24.7803 22.3175 -48.5475
rradius 138.617
rwrist 0.178455
rhand -16.3812 32.2624
rfingers 7.12502
rthumb 9.83242 2.51195
lclavicle 1.18898e-014 1.69961e-014
lhumerus -17.9682 -25.9088 36.401
lradius 140.108
lwrist 41.2976
lhand -2.35644 7.39193
lfingers 7.12502
lthumb 23.3315 35.998
rfemur -20.8812 -6.92671 20.8331
rtibia 20.0943
rfoot -14.7035 8.15741
rtoes 32.7909
lfemur -18.3172 -5.11117 -18.5622
ltibia 17.7245
lfoot -14.2281 2.03678
ltoes -34.6601
2028
root 12.9559 18.1603 7.74024 11.7441 -5.97839 0.853565
lowerback 7.69392 -2.25041 -0.065845
upperback -4.59473 -2.98104 0.677903
thorax -9.15456 -1.42256 1.21813
lowerneck 8.29624 5.73947 15.0824
upperneck -38.0806 4.13505 -22.7005
head -12.8514 2.54984 -12.9286
rclavicle -3.79554e-014 1.26228e-014
rhumerus -28.5251 24.8711 -53.4785
rradius 138.058
rwrist 0.957897
rhand -15.8295 33.0241
rfingers 7.12502
rthumb 10.3647 3.29955
lclavicle -3.79554e-014 1.26228e-014
lhumerus -21.5508 -27.6839 40.6319
lradius 139.826
lwrist 39.2758
lhand -1.34946 7.15761
lfingers 7.12502
lthumb 24.2972 35.6378
rfemur -20.4454 -7.1502 21.1715
rtibia 20.0752
rfoot -14.9356 7.76801
rtoes 30.3014
lfemur -18.0479 -4.45914 -18.4277
ltibia 17.9671
lfoot -14.3438 1.52492
ltoes -34.788
